# xmcd
#
# Track frame offsets: 
#        150
#        14241
#        30074
#        45299
#        58191
#        72237
#        84500
#        99675
#        118425
#        129805
#        142013
#        158360
#        176045
#
# Disc length: 2543 seconds
#
# Revision: 0
# Processed by: cddbd v1.5.2PL0 Copyright (c) Steve Scherf et al.
# Submitted via: ExactAudioCopy v1.0b3
#
DISCID=aa09ed0d
DTITLE=The Tu -Tones - The Tu -Tones
DYEAR=2014
DGENRE=Blues
TTITLE0=Lucille
TTITLE1=I Told My Little Woman
TTITLE2=Hip Shakin' Woman
TTITLE3=Folsom Prison Blues
TTITLE4=Bo Diddley
TTITLE5=Off The Wall
TTITLE6=Straighten Up, Baby
TTITLE7=Walking Out On You
TTITLE8=Bulldog
TTITLE9=Rainin' In My Heart
TTITLE10=Ya-Ya
TTITLE11=Pawnshop Bound
TTITLE12=Low-Down Woman
EXTD=
EXTT0=
EXTT1=
EXTT2=
EXTT3=
EXTT4=
EXTT5=
EXTT6=
EXTT7=
EXTT8=
EXTT9=
EXTT10=
EXTT11=
EXTT12=
PLAYORDER=
